<svg width="48" height="60" viewBox="0 0 48 60" fill="none" xmlns="http://www.w3.org/2000/svg">
<path d="M46.5 24C46.5 26.95 45.2597 30.5971 43.2055 34.5212C41.1693 38.411 38.4163 42.4186 35.5772 46.0461C32.7407 49.6703 29.8444 52.8817 27.5438 55.1771C26.3911 56.3271 25.4056 57.2296 24.664 57.8343C24.3976 58.0515 24.1763 58.219 24 58.3418C23.8237 58.219 23.6024 58.0515 23.336 57.8343C22.5944 57.2296 21.6089 56.3271 20.4562 55.1771C18.1556 52.8817 15.2593 49.6703 12.4228 46.0461C9.58374 42.4186 6.83073 38.411 4.79452 34.5212C2.74035 30.5971 1.5 26.95 1.5 24C1.5 11.5736 11.5736 1.5 24 1.5C36.4264 1.5 46.5 11.5736 46.5 24Z" fill="black" stroke="#292C2E" stroke-width="3"/>
<circle cx="24" cy="21" r="8" fill="black" stroke="#292C2E" stroke-width="2"/>
</svg>
